<svg xmlns="http://www.w3.org/2000/svg" viewBox="0 0 289 221.02"><defs><style>.cls-1{fill:#020202;}</style></defs><title>Recurso 1</title><g id="Capa_2" data-name="Capa 2"><g id="Capa_2-2" data-name="Capa 2"><path class="cls-1" d="M90.34,110.46a2,2,0,0,0,1.15-3.64l-88.34-62a2,2,0,0,0-3,2.46l28.34,62.05a2,2,0,0,0,1.82,1.17ZM6.88,52.29,84,106.46H31.63Z"/><path class="cls-1" d="M82,176.86c4.4-2.74,10.35-8.43,10.35-19.13a30.25,30.25,0,0,0-.27-4.1,18.62,18.62,0,0,0-18.49-15.94H30.94a2,2,0,1,0,0,4c5.27,0,7.66,4.65,8.21,5.88v64.76c-.27,1.1-4.56,3.42-8.82,4.77a2,2,0,0,0,.61,3.91h35.4C73.23,221,99,217.23,99,198.75,99,186.06,88.37,179.6,82,176.86ZM66.34,217H40c1.82-1.3,3.15-2.86,3.15-4.64V147.18a2,2,0,0,0-.12-.68,15.58,15.58,0,0,0-3-4.81H73.58a14.61,14.61,0,0,1,14.53,12.48,27.08,27.08,0,0,1,.23,3.56c0,13.81-11.59,17.34-12.08,17.48a2,2,0,0,0-1.45,1.95,2,2,0,0,0,1.5,1.91c.18.05,18.67,5,18.67,19.68C95,213.76,72,217,66.34,217Z"/><path class="cls-1" d="M55.94,173H56c1.33,0,13.08-.16,18.5-5.53a9.33,9.33,0,0,0,0-13.37c-5.63-5.58-18.07-5.53-18.6-5.53a2,2,0,0,0-2,2V171A2,2,0,0,0,55.94,173Zm2-20.36c4,.24,10.7,1.25,13.77,4.31a5.34,5.34,0,0,1,0,7.68c-3.08,3.05-9.81,4.07-13.77,4.31Z"/><path class="cls-1" d="M55.87,183.69a2,2,0,0,0-1.91,2v21.06a2,2,0,0,0,2,2h0c.9,0,22-.28,22-12.53a9.85,9.85,0,0,0-3.14-7.38C68.86,183.18,56.39,183.67,55.87,183.69Zm2.09,21v-17c4,.1,10.8.93,14.05,4a5.93,5.93,0,0,1,1.91,4.49C73.92,202.72,62.65,204.28,58,204.65Z"/><path class="cls-1" d="M187.83,137.69H158.94a2,2,0,0,0-1.93,1.46l-10.92,38.64-10.93-38.64a2,2,0,0,0-1.93-1.46H106a2,2,0,0,0-.5,3.94c1.15.3,4.46,1.63,4.46,3.68v65.2a8.62,8.62,0,0,1-.72,3.57c-1.36,2.93-3.41,2.93-4.09,2.93a2,2,0,1,0,0,4h29.62a2,2,0,0,0,.94-3.76c-2.34-1.26-5.58-3.82-5.58-5.36V177.48l14.69,38a2,2,0,0,0,1.86,1.27h0a2,2,0,0,0,1.86-1.29l14.68-39.2v36.22a6.65,6.65,0,0,1-.89,3.44c-.52.89-.92,1.09-1,1.09a2,2,0,0,0,0,4H187a2,2,0,0,0,2-1.79,2,2,0,0,0-1.57-2.17s-3.35-.75-3.35-2.89V147.21a6,6,0,0,1,2.42-4.94,2.52,2.52,0,0,1,1.32-.58,2,2,0,0,0,0-4Zm-7,79.32H166.28a10.88,10.88,0,0,0,.95-4.53V165.22a2,2,0,0,0-3.87-.7l-16.71,44.61L130,166a2,2,0,0,0-3.86.72v45.14a7.67,7.67,0,0,0,2.56,5.12h-16.5a10.74,10.74,0,0,0,.68-1.26,12.41,12.41,0,0,0,1.09-5.24v-65.2a6.07,6.07,0,0,0-1.2-3.62h19l12.44,44a2,2,0,0,0,3.85,0l12.44-44h21.22a10.28,10.28,0,0,0-1.58,5.52v66.95A5.89,5.89,0,0,0,180.79,217Z"/><path class="cls-1" d="M260.88,139c-16.58-5.91-34.36-3.88-47.54,5.42-11.46,8.09-17.77,20.49-17.77,34.93,0,27.84,27.64,41.32,46.31,41.66H243c11.74,0,17.9-3.35,18.16-3.5a2,2,0,0,0,1-1.74V195.69a2,2,0,0,0-1.52-1.93,2,2,0,0,0-2.26,1c-.13.27-3.52,6.5-13.71,6.5-5.47,0-16-2.5-22.53-9.39a19.78,19.78,0,0,1-5.51-15.23c.65-12.59,16.79-23.21,26.58-23.21,11.06,0,14.91,10.62,15.06,11.07a2,2,0,0,0,3.89-.65v-23A2,2,0,0,0,260.88,139Zm-2.67,17.65a18.91,18.91,0,0,0-14.95-7.21c-11.52,0-29.8,12.09-30.58,27a23.73,23.73,0,0,0,6.61,18.2c6.93,7.3,18,10.63,25.43,10.63,6.49,0,10.8-2.16,13.49-4.32v13.54c-2.15.88-7.62,2.68-16.26,2.52-17.09-.31-42.38-12.5-42.38-37.66,0-13.1,5.71-24.35,16.08-31.66a45.32,45.32,0,0,1,26.22-8,52.63,52.63,0,0,1,16.34,2.64Z"/><path class="cls-1" d="M29,123.9v1.62a7.66,7.66,0,0,0,7.65,7.65h218a7.66,7.66,0,0,0,7.65-7.65V123.9a7.65,7.65,0,0,0-7.65-7.64H36.6A7.65,7.65,0,0,0,29,123.9Zm229.27,0v1.62a3.67,3.67,0,0,1-3.67,3.67H36.6a3.68,3.68,0,0,1-3.68-3.67V123.9a3.68,3.68,0,0,1,3.68-3.67h218A3.67,3.67,0,0,1,258.22,123.9Z"/><path class="cls-1" d="M94.46,101.84a2,2,0,0,0,1.24.43,2,2,0,0,0,1.87-1.3l12.76-34.72a2,2,0,0,0-.35-2L75.77,23.94a2,2,0,0,0-3.48,1L65.14,77.17A2,2,0,0,0,65.87,79ZM75.62,29.91,106.2,66,94.79,97,69.23,76.59Z"/><path class="cls-1" d="M288.27,44.88a2,2,0,0,0-2.42-.1l-88.34,62a2,2,0,0,0,1.15,3.64h60a2,2,0,0,0,1.81-1.17l28.34-62A2,2,0,0,0,288.27,44.88Zm-30.9,61.58H205l77.13-54.17Z"/><path class="cls-1" d="M191.43,101a2,2,0,0,0,1.33,1.23,1.88,1.88,0,0,0,.53.07,2,2,0,0,0,1.24-.43L223.13,79a2,2,0,0,0,.73-1.82L216.71,25a2,2,0,0,0-3.49-1L179,64.28a2,2,0,0,0-.35,2Zm21.95-71.06,6.39,46.68L194.21,97,182.79,66Z"/><path class="cls-1" d="M104.54,109.6a2,2,0,0,0,1.63.84h76.66a2,2,0,0,0,1.62-.84,2,2,0,0,0,.25-1.82L146.37,1.31a2,2,0,0,0-3.74,0L104.3,107.78A2,2,0,0,0,104.54,109.6Zm40-101.74L180,106.47H109Z"/></g></g></svg>